<?xml version="1.0" encoding="UTF-8" standalone="no"?>
<!-- Created with Inkscape (http://www.inkscape.org/) -->

<svg
   width="50mm"
   height="50mm"
   viewBox="0 0 50 50"
   version="1.1"
   id="svg5"
   inkscape:version="1.1.1 (3bf5ae0d25, 2021-09-20)"
   sodipodi:docname="favicon.svg"
   xmlns:inkscape="http://www.inkscape.org/namespaces/inkscape"
   xmlns:sodipodi="http://sodipodi.sourceforge.net/DTD/sodipodi-0.dtd"
   xmlns="http://www.w3.org/2000/svg"
   xmlns:svg="http://www.w3.org/2000/svg">
  <sodipodi:namedview
     id="namedview7"
     pagecolor="#ffffff"
     bordercolor="#666666"
     borderopacity="1.0"
     inkscape:pageshadow="2"
     inkscape:pageopacity="0.0"
     inkscape:pagecheckerboard="0"
     inkscape:document-units="mm"
     showgrid="false"
     inkscape:zoom="1.5874189"
     inkscape:cx="172.92222"
     inkscape:cy="143.62938"
     inkscape:window-width="1920"
     inkscape:window-height="830"
     inkscape:window-x="0"
     inkscape:window-y="177"
     inkscape:window-maximized="0"
     inkscape:current-layer="layer1" />
  <defs
     id="defs2">
    <rect
       x="2.7911503"
       y="-217.23245"
       width="1376.6921"
       height="750.1665"
       id="rect38459" />
    <rect
       x="43.077976"
       y="37.229618"
       width="1121.7117"
       height="298.89008"
       id="rect26799" />
    <rect
       x="26.084431"
       y="167.21524"
       width="1130.171"
       height="171.85608"
       id="rect8377" />
    <rect
       x="22.106697"
       y="25.860947"
       width="1136.2896"
       height="131.31287"
       id="rect4301" />
  </defs>
  <g
     inkscape:groupmode="layer"
     id="layer2"
     inkscape:label="Ebene 2" />
  <g
     inkscape:label="Ebene 1"
     inkscape:groupmode="layer"
     id="layer1">
    <text
       xml:space="preserve"
       transform="matrix(0.37370303,0,0,0.37370303,-31.221797,-21.643531)"
       id="text8375"
       style="font-style:normal;font-variant:normal;font-weight:normal;font-stretch:normal;font-size:40px;line-height:1.25;font-family:'Noto Sans Sharada';-inkscape-font-specification:'Noto Sans Sharada';letter-spacing:0px;word-spacing:0px;white-space:pre;shape-inside:url(#rect8377);fill:#000000;fill-opacity:1;stroke:none" />
    <text
       xml:space="preserve"
       style="font-style:normal;font-variant:normal;font-weight:normal;font-stretch:normal;font-size:14.9481px;line-height:1.25;font-family:'Noto Sans Sharada';-inkscape-font-specification:'Noto Sans Sharada';letter-spacing:0px;word-spacing:0px;fill:#000000;fill-opacity:1;stroke:none;stroke-width:0.373703"
       x="260.73889"
       y="47.440323"
       id="text10979"><tspan
         sodipodi:role="line"
         id="tspan10977"
         style="font-style:normal;font-variant:normal;font-weight:normal;font-stretch:normal;font-family:'Noto Sans Sharada';-inkscape-font-specification:'Noto Sans Sharada';stroke-width:0.373703"
         x="260.73889"
         y="47.440323" /></text>
    <g
       aria-label=".io"
       transform="matrix(0.98704991,0,0,1.01312,-157.62854,-5.1700536)"
       id="text34814"
       style="font-size:41.2278px;line-height:1.25;letter-spacing:0px;word-spacing:0px;fill:#d65780;stroke-width:0.214728">
      <path
         d="m 165.70457,40.048346 q 1.3689,0 2.11373,0.785099 0.74484,0.764969 0.74484,1.932553 0,1.147454 -0.74484,1.912423 -0.74483,0.744838 -2.11373,0.744838 -1.3085,0 -2.07347,-0.744838 -0.76496,-0.744839 -0.76496,-1.912423 0,-1.167584 0.74483,-1.932553 0.74484,-0.785099 2.0936,-0.785099 z"
         style="font-weight:500;font-family:Roboto;-inkscape-font-specification:'Roboto Medium'"
         id="path872" />
      <path
         d="m 179.37336,45.20182 h -4.89177 V 23.420337 h 4.89177 z m -5.19374,-27.438227 q 0,-1.127322 0.70458,-1.872161 0.72471,-0.744838 2.05334,-0.744838 1.32863,0 2.05334,0.744838 0.7247,0.744839 0.7247,1.872161 0,1.107192 -0.7247,1.85203 -0.72471,0.724708 -2.05334,0.724708 -1.32863,0 -2.05334,-0.724708 -0.70458,-0.744838 -0.70458,-1.85203 z"
         style="font-weight:500;font-family:Roboto;-inkscape-font-specification:'Roboto Medium'"
         id="path874" />
      <path
         d="m 183.782,34.109771 q 0,-3.200791 1.26823,-5.757398 1.26824,-2.576737 3.56315,-3.945629 2.29491,-1.389022 5.27426,-1.389022 4.40863,0 7.14642,2.838437 2.75791,2.838437 2.97935,7.528905 l 0.0201,1.147453 q 0,3.220922 -1.24811,5.757398 -1.22797,2.536476 -3.54301,3.925498 -2.29491,1.389023 -5.31452,1.389023 -4.60994,0 -7.38799,-3.059876 -2.75791,-3.080007 -2.75791,-8.19322 z m 4.89177,0.422746 q 0,3.361837 1.38902,5.274259 1.38903,1.892292 3.86511,1.892292 2.47608,0 3.84497,-1.932553 1.38903,-1.932553 1.38903,-5.656744 0,-3.301445 -1.42929,-5.233998 -1.40915,-1.932553 -3.84497,-1.932553 -2.39556,0 -3.80472,1.912422 -1.40915,1.892292 -1.40915,5.676875 z"
         style="font-weight:500;font-family:Roboto;-inkscape-font-specification:'Roboto Medium'"
         id="path876" />
    </g>
    <text
       xml:space="preserve"
       transform="scale(0.26458333)"
       id="text38457"
       style="font-style:normal;font-weight:normal;font-size:40px;line-height:1.25;font-family:sans-serif;letter-spacing:0px;word-spacing:0px;white-space:pre;shape-inside:url(#rect38459);fill:#000000;fill-opacity:1;stroke:none" />
    <path
       sodipodi:type="star"
       style="fill:#d65780;fill-opacity:1;stroke:#bad1cd;stroke-width:1.65921;stroke-linecap:round;stroke-opacity:0"
       id="path43641"
       inkscape:flatsided="true"
       sodipodi:sides="5"
       sodipodi:cx="822.79877"
       sodipodi:cy="194.20857"
       sodipodi:r1="11.306907"
       sodipodi:r2="9.14748"
       sodipodi:arg1="0.32296868"
       sodipodi:arg2="0.95128721"
       inkscape:rounded="0"
       inkscape:randomized="0"
       d="m 833.52108,197.79719 -10.82192,7.71785 -10.68426,-7.90731 4.21867,-12.60483 13.29156,0.11709 z"
       transform="matrix(0.26458333,0,0,0.26458333,-193.09877,-7.2273066)"
       inkscape:transform-center-x="0.0081465997"
       inkscape:transform-center-y="0.27791721" />
    <path
       sodipodi:type="star"
       style="fill:#d65780;fill-opacity:1;stroke:#bad1cd;stroke-width:1.65921;stroke-linecap:round;stroke-opacity:0"
       id="path43643"
       inkscape:flatsided="true"
       sodipodi:sides="5"
       sodipodi:cx="858.1994"
       sodipodi:cy="49.538555"
       sodipodi:r1="11.31966"
       sodipodi:r2="9.1577969"
       sodipodi:arg1="0.32360986"
       sodipodi:arg2="0.9519284"
       inkscape:rounded="0"
       inkscape:randomized="0"
       d="m 868.9315,53.138106 -10.83907,7.719604 -10.69124,-7.923084 4.23153,-12.616338 13.30646,0.125758 z"
       transform="matrix(0.26458333,0,0,0.26458333,-186.12403,-7.7909349)"
       inkscape:transform-center-x="0.0087492961"
       inkscape:transform-center-y="0.27766512" />
    <path
       sodipodi:type="star"
       style="fill:#d65780;fill-opacity:1;stroke:#bad1cd;stroke-width:1.65921;stroke-linecap:round;stroke-opacity:0"
       id="path43645"
       inkscape:flatsided="true"
       sodipodi:sides="5"
       sodipodi:cx="691.08167"
       sodipodi:cy="43.2286"
       sodipodi:r1="12.845492"
       sodipodi:r2="10.392222"
       sodipodi:arg1="0.48051949"
       sodipodi:arg2="1.108838"
       inkscape:rounded="0"
       inkscape:randomized="0"
       d="m 702.47247,49.166299 -13.51794,6.730448 -10.57831,-10.776501 6.98018,-13.390692 14.8923,2.500598 z"
       transform="matrix(0.26458333,0,0,0.26458333,-175.5596,-4.9940392)"
       inkscape:transform-center-x="0.17391849"
       inkscape:transform-center-y="0.15466231" />
    <path
       sodipodi:type="star"
       style="fill:#d65780;fill-opacity:1;stroke:#bad1cd;stroke-width:1.65921;stroke-linecap:round;stroke-opacity:0"
       id="path43647"
       inkscape:flatsided="true"
       sodipodi:sides="5"
       sodipodi:cx="762.36383"
       sodipodi:cy="260.43802"
       sodipodi:r1="10.753981"
       sodipodi:r2="8.7001534"
       sodipodi:arg1="-2.490145"
       sodipodi:arg2="-1.8618264"
       inkscape:rounded="0"
       inkscape:randomized="0"
       d="m 753.81219,253.91747 12.11045,-3.6275 7.19229,10.39676 -7.66536,10.05305 -11.92975,-4.18363 z"
       transform="matrix(0.26458333,0,0,0.26458333,-195.44239,-46.324188)"
       inkscape:transform-center-x="-0.25228973"
       inkscape:transform-center-y="0.020333722" />
    <path
       sodipodi:type="star"
       style="fill:#d65780;fill-opacity:1;stroke:#bad1cd;stroke-width:1.65921;stroke-linecap:round;stroke-opacity:0"
       id="path43649"
       inkscape:flatsided="true"
       sodipodi:sides="5"
       sodipodi:cx="602.08795"
       sodipodi:cy="93.838844"
       sodipodi:r1="17.32478"
       sodipodi:r2="14.01604"
       sodipodi:arg1="0.76104977"
       sodipodi:arg2="1.3893683"
       inkscape:rounded="0"
       inkscape:randomized="0"
       d="m 614.63304,105.78743 -20.03223,3.67482 -9.68525,-17.916199 14.04641,-14.747635 18.36641,8.801658 z"
       transform="matrix(0.26458333,0,0,0.26458333,-128.93368,-14.210174)"
       inkscape:transform-center-x="0.25558488"
       inkscape:transform-center-y="-0.18746079" />
    <path
       sodipodi:type="star"
       style="fill:#d65780;fill-opacity:1;stroke:#bad1cd;stroke-width:1.65921;stroke-linecap:round;stroke-opacity:0"
       id="path43677"
       inkscape:flatsided="true"
       sodipodi:sides="5"
       sodipodi:cx="903.43127"
       sodipodi:cy="84.792221"
       sodipodi:r1="8.8154287"
       sodipodi:r2="7.1318316"
       sodipodi:arg1="0.76347941"
       sodipodi:arg2="1.3917979"
       inkscape:rounded="0"
       inkscape:randomized="0"
       d="m 909.79985,90.887555 -10.19759,1.845098 -4.90601,-9.128309 7.16549,-7.486703 9.33454,4.501271 z"
       transform="matrix(0.26458333,0,0,0.26458333,-192.63583,-7.6637566)"
       inkscape:transform-center-x="0.12832934"
       inkscape:transform-center-y="-0.097121959" />
  </g>
</svg>
