<?xml version="1.0" encoding="UTF-8" standalone="no"?>
<!-- Created with Inkscape (http://www.inkscape.org/) -->

<svg
   width="210mm"
   height="80mm"
   viewBox="0 0 210 80"
   version="1.1"
   id="svg5"
   inkscape:version="1.1.1 (3bf5ae0d25, 2021-09-20)"
   sodipodi:docname="logo_light.svg"
   xmlns:inkscape="http://www.inkscape.org/namespaces/inkscape"
   xmlns:sodipodi="http://sodipodi.sourceforge.net/DTD/sodipodi-0.dtd"
   xmlns="http://www.w3.org/2000/svg"
   xmlns:svg="http://www.w3.org/2000/svg">
  <sodipodi:namedview
     id="namedview7"
     pagecolor="#ffffff"
     bordercolor="#666666"
     borderopacity="1.0"
     inkscape:pageshadow="2"
     inkscape:pageopacity="0.0"
     inkscape:pagecheckerboard="0"
     inkscape:document-units="mm"
     showgrid="false"
     inkscape:zoom="1.1224747"
     inkscape:cx="497.56133"
     inkscape:cy="245.88527"
     inkscape:window-width="1920"
     inkscape:window-height="830"
     inkscape:window-x="0"
     inkscape:window-y="177"
     inkscape:window-maximized="0"
     inkscape:current-layer="layer1" />
  <defs
     id="defs2">
    <rect
       x="2.7911503"
       y="-217.23245"
       width="1376.6921"
       height="750.1665"
       id="rect38459" />
    <rect
       x="43.077976"
       y="37.229618"
       width="1121.7117"
       height="298.89008"
       id="rect26799" />
    <rect
       x="26.084431"
       y="167.21524"
       width="1130.171"
       height="171.85608"
       id="rect8377" />
    <rect
       x="22.106697"
       y="25.860947"
       width="1136.2896"
       height="131.31287"
       id="rect4301" />
  </defs>
  <g
     inkscape:groupmode="layer"
     id="layer2"
     inkscape:label="Ebene 2" />
  <g
     inkscape:label="Ebene 1"
     inkscape:groupmode="layer"
     id="layer1">
    <text
       xml:space="preserve"
       transform="matrix(0.37370303,0,0,0.37370303,-31.221797,-21.643531)"
       id="text8375"
       style="font-style:normal;font-variant:normal;font-weight:normal;font-stretch:normal;font-size:40px;line-height:1.25;font-family:'Noto Sans Sharada';-inkscape-font-specification:'Noto Sans Sharada';letter-spacing:0px;word-spacing:0px;white-space:pre;shape-inside:url(#rect8377);fill:#000000;fill-opacity:1;stroke:none" />
    <text
       xml:space="preserve"
       style="font-style:normal;font-variant:normal;font-weight:normal;font-stretch:normal;font-size:14.9481px;line-height:1.25;font-family:'Noto Sans Sharada';-inkscape-font-specification:'Noto Sans Sharada';letter-spacing:0px;word-spacing:0px;fill:#000000;fill-opacity:1;stroke:none;stroke-width:0.373703"
       x="260.73889"
       y="47.440323"
       id="text10979"><tspan
         sodipodi:role="line"
         id="tspan10977"
         style="font-style:normal;font-variant:normal;font-weight:normal;font-stretch:normal;font-family:'Noto Sans Sharada';-inkscape-font-specification:'Noto Sans Sharada';stroke-width:0.373703"
         x="260.73889"
         y="47.440323" /></text>
    <g
       aria-label="seitle"
       transform="matrix(0.37370303,0,0,0.37370303,-12.102007,-7.6957692)"
       id="text26797"
       style="font-size:192px;line-height:1.25;letter-spacing:-7.08004px;word-spacing:0px;white-space:pre;shape-inside:url(#rect26799);fill:#ffffff">
      <path
         d="m 115.26563,185.02025 q 0,-7.03125 -5.34375,-10.875 -5.25,-3.9375 -18.468755,-6.75 -13.125,-2.8125 -20.90625,-6.75 -7.6875,-3.9375 -11.4375,-9.375 -3.65625,-5.4375 -3.65625,-12.9375 0,-12.46875 10.5,-21.09375 10.59375,-8.625 27,-8.625 17.250005,0 27.937505,8.90625 10.78124,8.90625 10.78124,22.78125 h -17.43749 q 0,-7.125 -6.09375,-12.28125 -6,-5.15625 -15.187505,-5.15625 -9.46875,0 -14.8125,4.125 -5.34375,4.125 -5.34375,10.78125 0,6.28125 4.96875,9.46875 4.96875,3.1875 17.90625,6.09375 13.031255,2.90625 21.093755,6.9375 8.0625,4.03125 11.90624,9.75 3.9375,5.625 3.9375,13.78125 0,13.59375 -10.87499,21.84375 -10.875,8.15625 -28.218755,8.15625 -12.1875,0 -21.5625,-4.3125 -9.375,-4.3125 -14.71875,-12 -5.25,-7.78125 -5.25,-16.78125 h 17.34375 q 0.46875,8.71875 6.9375,13.875 6.5625,5.0625 17.25,5.0625 9.843755,0 15.750005,-3.9375 6,-4.03125 6,-10.6875 z"
         style="font-family:Roboto;-inkscape-font-specification:Roboto;fill:#ffffff"
         id="path841" />
      <path
         d="m 190.21684,213.8015 q -20.625,0 -33.5625,-13.5 -12.9375,-13.59375 -12.9375,-36.28125 v -3.1875 q 0,-15.09375 5.71875,-26.90625 5.8125,-11.90625 16.125,-18.5625 10.40625,-6.75 22.5,-6.75 19.78125,0 30.75,13.03125 10.96875,13.03125 10.96875,37.3125 v 7.21875 h -68.71875 q 0.375,15 8.71875,24.28125 8.4375,9.1875 21.375,9.1875 9.1875,0 15.5625,-3.75 6.375,-3.75 11.15625,-9.9375 l 10.59375,8.25 q -12.75,19.59375 -38.25,19.59375 z m -2.15625,-90.9375 q -10.5,0 -17.625,7.6875 -7.125,7.59375 -8.8125,21.375 h 50.8125 v -1.3125 q -0.75,-13.21875 -7.125,-20.4375 -6.375,-7.3125 -17.25,-7.3125 z"
         style="font-family:Roboto;-inkscape-font-specification:Roboto;fill:#ffffff"
         id="path843" />
      <path
         d="M 261.60555,211.9265 H 244.2618 V 110.489 h 17.34375 z m -18.75,-128.343746 q 0,-4.21875 2.53125,-7.125 2.625,-2.90625 7.6875,-2.90625 5.0625,0 7.6875,2.90625 2.625,2.90625 2.625,7.125 0,4.21875 -2.625,7.03125 -2.625,2.8125 -7.6875,2.8125 -5.0625,0 -7.6875,-2.8125 -2.53125,-2.8125 -2.53125,-7.03125 z"
         style="font-family:Roboto;-inkscape-font-specification:Roboto;fill:#ffffff"
         id="path845" />
      <path
         d="M 305.80676,85.926504 V 110.489 h 18.9375 v 13.40625 h -18.9375 v 62.90625 q 0,6.09375 2.53125,9.1875 2.53125,3 8.625,3 3,0 8.25,-1.125 v 14.0625 q -6.84375,1.875 -13.3125,1.875 -11.625,0 -17.53125,-7.03125 -5.90625,-7.03125 -5.90625,-19.96875 V 123.89525 H 269.99426 V 110.489 h 18.46875 V 85.926504 Z"
         style="font-family:Roboto;-inkscape-font-specification:Roboto;fill:#ffffff"
         id="path847" />
      <path
         d="M 356.75797,211.9265 H 339.41422 V 67.926504 h 17.34375 z"
         style="font-family:Roboto;-inkscape-font-specification:Roboto;fill:#ffffff"
         id="path849" />
      <path
         d="m 419.52167,213.8015 q -20.625,0 -33.5625,-13.5 -12.9375,-13.59375 -12.9375,-36.28125 v -3.1875 q 0,-15.09375 5.71875,-26.90625 5.8125,-11.90625 16.125,-18.5625 10.40625,-6.75 22.5,-6.75 19.78125,0 30.75,13.03125 10.96875,13.03125 10.96875,37.3125 v 7.21875 h -68.71875 q 0.375,15 8.71875,24.28125 8.4375,9.1875 21.375,9.1875 9.1875,0 15.5625,-3.75 6.375,-3.75 11.15625,-9.9375 l 10.59375,8.25 q -12.75,19.59375 -38.25,19.59375 z m -2.15625,-90.9375 q -10.5,0 -17.625,7.6875 -7.125,7.59375 -8.8125,21.375 h 50.8125 v -1.3125 q -0.75,-13.21875 -7.125,-20.4375 -6.375,-7.3125 -17.25,-7.3125 z"
         style="font-family:Roboto;-inkscape-font-specification:Roboto;fill:#ffffff"
         id="path851" />
    </g>
    <g
       aria-label=".io"
       transform="scale(0.98704991,1.01312)"
       id="text34814"
       style="font-size:41.2278px;line-height:1.25;letter-spacing:0px;word-spacing:0px;fill:#d65780;stroke-width:0.214728">
      <path
         d="m 165.70457,40.048346 q 1.3689,0 2.11373,0.785099 0.74484,0.764969 0.74484,1.932553 0,1.147454 -0.74484,1.912423 -0.74483,0.744838 -2.11373,0.744838 -1.3085,0 -2.07347,-0.744838 -0.76496,-0.744839 -0.76496,-1.912423 0,-1.167584 0.74483,-1.932553 0.74484,-0.785099 2.0936,-0.785099 z"
         style="font-weight:500;font-family:Roboto;-inkscape-font-specification:'Roboto Medium'"
         id="path872" />
      <path
         d="m 179.37336,45.20182 h -4.89177 V 23.420337 h 4.89177 z m -5.19374,-27.438227 q 0,-1.127322 0.70458,-1.872161 0.72471,-0.744838 2.05334,-0.744838 1.32863,0 2.05334,0.744838 0.7247,0.744839 0.7247,1.872161 0,1.107192 -0.7247,1.85203 -0.72471,0.724708 -2.05334,0.724708 -1.32863,0 -2.05334,-0.724708 -0.70458,-0.744838 -0.70458,-1.85203 z"
         style="font-weight:500;font-family:Roboto;-inkscape-font-specification:'Roboto Medium'"
         id="path874" />
      <path
         d="m 183.782,34.109771 q 0,-3.200791 1.26823,-5.757398 1.26824,-2.576737 3.56315,-3.945629 2.29491,-1.389022 5.27426,-1.389022 4.40863,0 7.14642,2.838437 2.75791,2.838437 2.97935,7.528905 l 0.0201,1.147453 q 0,3.220922 -1.24811,5.757398 -1.22797,2.536476 -3.54301,3.925498 -2.29491,1.389023 -5.31452,1.389023 -4.60994,0 -7.38799,-3.059876 -2.75791,-3.080007 -2.75791,-8.19322 z m 4.89177,0.422746 q 0,3.361837 1.38902,5.274259 1.38903,1.892292 3.86511,1.892292 2.47608,0 3.84497,-1.932553 1.38903,-1.932553 1.38903,-5.656744 0,-3.301445 -1.42929,-5.233998 -1.40915,-1.932553 -3.84497,-1.932553 -2.39556,0 -3.80472,1.912422 -1.40915,1.892292 -1.40915,5.676875 z"
         style="font-weight:500;font-family:Roboto;-inkscape-font-specification:'Roboto Medium'"
         id="path876" />
    </g>
    <text
       xml:space="preserve"
       transform="scale(0.26458333)"
       id="text38457"
       style="font-style:normal;font-weight:normal;font-size:40px;line-height:1.25;font-family:sans-serif;letter-spacing:0px;word-spacing:0px;white-space:pre;shape-inside:url(#rect38459);fill:#000000;fill-opacity:1;stroke:none" />
    <path
       sodipodi:type="star"
       style="fill:#d65780;fill-opacity:1;stroke:#bad1cd;stroke-width:1.65921;stroke-linecap:round;stroke-opacity:0"
       id="path43641"
       inkscape:flatsided="true"
       sodipodi:sides="5"
       sodipodi:cx="822.79877"
       sodipodi:cy="194.20857"
       sodipodi:r1="11.306907"
       sodipodi:r2="9.14748"
       sodipodi:arg1="0.32296868"
       sodipodi:arg2="0.95128721"
       inkscape:rounded="0"
       inkscape:randomized="0"
       d="m 833.52108,197.79719 -10.82192,7.71785 -10.68426,-7.90731 4.21867,-12.60483 13.29156,0.11709 z"
       transform="matrix(0.26458333,0,0,0.26458333,-35.007285,-2.493703)"
       inkscape:transform-center-x="0.0081465997"
       inkscape:transform-center-y="0.27791721" />
    <path
       sodipodi:type="star"
       style="fill:#d65780;fill-opacity:1;stroke:#bad1cd;stroke-width:1.65921;stroke-linecap:round;stroke-opacity:0"
       id="path43643"
       inkscape:flatsided="true"
       sodipodi:sides="5"
       sodipodi:cx="858.1994"
       sodipodi:cy="49.538555"
       sodipodi:r1="11.31966"
       sodipodi:r2="9.1577969"
       sodipodi:arg1="0.32360986"
       sodipodi:arg2="0.9519284"
       inkscape:rounded="0"
       inkscape:randomized="0"
       d="m 868.9315,53.138106 -10.83907,7.719604 -10.69124,-7.923084 4.23153,-12.616338 13.30646,0.125758 z"
       transform="matrix(0.26458333,0,0,0.26458333,-35.007285,-2.493703)"
       inkscape:transform-center-x="0.0087492961"
       inkscape:transform-center-y="0.27766512" />
    <path
       sodipodi:type="star"
       style="fill:#d65780;fill-opacity:1;stroke:#bad1cd;stroke-width:1.65921;stroke-linecap:round;stroke-opacity:0"
       id="path43645"
       inkscape:flatsided="true"
       sodipodi:sides="5"
       sodipodi:cx="691.08167"
       sodipodi:cy="43.2286"
       sodipodi:r1="12.845492"
       sodipodi:r2="10.392222"
       sodipodi:arg1="0.48051949"
       sodipodi:arg2="1.108838"
       inkscape:rounded="0"
       inkscape:randomized="0"
       d="m 702.47247,49.166299 -13.51794,6.730448 -10.57831,-10.776501 6.98018,-13.390692 14.8923,2.500598 z"
       transform="matrix(0.26458333,0,0,0.26458333,-35.007285,-2.493703)"
       inkscape:transform-center-x="0.17391849"
       inkscape:transform-center-y="0.15466231" />
    <path
       sodipodi:type="star"
       style="fill:#d65780;fill-opacity:1;stroke:#bad1cd;stroke-width:1.65921;stroke-linecap:round;stroke-opacity:0"
       id="path43647"
       inkscape:flatsided="true"
       sodipodi:sides="5"
       sodipodi:cx="762.36383"
       sodipodi:cy="260.43802"
       sodipodi:r1="10.753981"
       sodipodi:r2="8.7001534"
       sodipodi:arg1="-2.490145"
       sodipodi:arg2="-1.8618264"
       inkscape:rounded="0"
       inkscape:randomized="0"
       d="m 753.81219,253.91747 12.11045,-3.6275 7.19229,10.39676 -7.66536,10.05305 -11.92975,-4.18363 z"
       transform="matrix(0.26458333,0,0,0.26458333,-35.007285,-2.493703)"
       inkscape:transform-center-x="-0.25228973"
       inkscape:transform-center-y="0.020333722" />
    <path
       sodipodi:type="star"
       style="fill:#d65780;fill-opacity:1;stroke:#bad1cd;stroke-width:1.65921;stroke-linecap:round;stroke-opacity:0"
       id="path43649"
       inkscape:flatsided="true"
       sodipodi:sides="5"
       sodipodi:cx="602.08795"
       sodipodi:cy="93.838844"
       sodipodi:r1="17.32478"
       sodipodi:r2="14.01604"
       sodipodi:arg1="0.76104977"
       sodipodi:arg2="1.3893683"
       inkscape:rounded="0"
       inkscape:randomized="0"
       d="m 614.63304,105.78743 -20.03223,3.67482 -9.68525,-17.916199 14.04641,-14.747635 18.36641,8.801658 z"
       transform="matrix(0.26458333,0,0,0.26458333,-35.007285,-2.493703)"
       inkscape:transform-center-x="0.25558488"
       inkscape:transform-center-y="-0.18746079" />
    <path
       sodipodi:type="star"
       style="fill:#d65780;fill-opacity:1;stroke:#bad1cd;stroke-width:1.65921;stroke-linecap:round;stroke-opacity:0"
       id="path43677"
       inkscape:flatsided="true"
       sodipodi:sides="5"
       sodipodi:cx="903.43127"
       sodipodi:cy="84.792221"
       sodipodi:r1="8.8154287"
       sodipodi:r2="7.1318316"
       sodipodi:arg1="0.76347941"
       sodipodi:arg2="1.3917979"
       inkscape:rounded="0"
       inkscape:randomized="0"
       d="m 909.79985,90.887555 -10.19759,1.845098 -4.90601,-9.128309 7.16549,-7.486703 9.33454,4.501271 z"
       transform="matrix(0.26458333,0,0,0.26458333,-35.007285,-2.493703)"
       inkscape:transform-center-x="0.12832934"
       inkscape:transform-center-y="-0.097121959" />
  </g>
</svg>
